<svg width="30" height="30" viewBox="0 0 30 30" fill="none" xmlns="http://www.w3.org/2000/svg">
<circle cx="15" cy="15" r="15" fill="#0095D6"/>
<path d="M15.8906 25.0818H14.25V23.6169C10.582 23.406 8.36719 21.5544 8.35547 18.6951H11.707C11.7891 19.8552 12.7852 20.7224 14.25 20.8748V16.5154L13.0195 16.2224C10.207 15.5662 8.69531 13.949 8.69531 11.4998C8.69531 8.61694 10.7578 6.76538 14.25 6.48413V4.89038H15.8906V6.48413C19.1484 6.78882 21.2578 8.69897 21.3047 11.406H18.0352C18 10.3396 17.1211 9.46069 15.8906 9.28491V13.4568L17.1445 13.7146C20.1562 14.3591 21.6328 15.9177 21.6328 18.449C21.6328 21.4373 19.5586 23.2888 15.8906 23.5935V25.0818ZM18.3047 18.8474C18.3047 17.7693 17.5312 17.113 15.8906 16.8083V20.8865C17.4141 20.7927 18.3047 20.031 18.3047 18.8474ZM12.0938 11.1716C12.0938 12.156 12.832 12.8357 14.25 13.1169V9.27319C12.9844 9.34351 12.0938 10.1287 12.0938 11.1716Z" fill="white"/>
</svg>
